<svg id="Layer_1" data-name="Layer 1" xmlns="http://www.w3.org/2000/svg" viewBox="0 0 540.67 604.64"><defs><style>.cls-1:hover{fill:white;}</style></defs><title>avatar</title><path class="cls-1" d="M164.57,396.31c-15.72-21.1-21.4-39.25-17.5-62.8,3.52-21.22-5-43.95-5.45-66.06-0.84-38.73,9.67-75.23,37.55-104.45,16.29-17.08,35.12-31.67,60.07-40,36.64-12.25,68.47-9.86,100.91,10.45,15.11,9.46,34.1,13.43,51.19,20.18,6.53,2.58,12.68,6,20.15,9.58l-14,8.28C393.88,194.29,434,208,417.48,231c3.62,13.61,8,24.53,9.17,35.74,2.18,20.49,1.47,41.26,4.06,61.68,1,7.88,3.92,8.17,7.71,15.12-25,3.93-13,32-23.71,42.35-7.19-30-14.4-58.49-20.75-87.18-3.31-14.94,4.12-62.48-15.89-66.6-2.48-.51-20.57,26.08-22.81,23.82-9.58-9.64-10.45-16-28-16-15.55.08-30.79-14.1-46.82-15.52-27.05-2.4-55.24-2.78-81.76,1.91C180,229.67,175,248.93,174,266.39q-3.57,59.87-7.23,119.73C166.59,388.5,165.76,390.83,164.57,396.31Z" transform="translate(-31.67 -115.52)"/><path class="cls-1" d="M327.67,348.15l-14.35,27.24c-18.58-20.79-14.53-40.49,8.1-49.43,13.08-5.17,25.89-11,39.21-15.52,6.37-2.17,13.65-2,20.51-2.91l2.27,5.59-23.93,13,27,20.11L383.19,352Z" transform="translate(-31.67 -115.52)"/><path class="cls-1" d="M347.76,471.27c-19.79,11-18.58,38-47.71,34.05-12.55-1.69-22.73-2-29.94-14.12-4-6.76-13.62-10.59-20.78-19.93,16.14,0,32.29,5.61,49.22,5.61C314.09,476.88,330.29,471.27,347.76,471.27Z" transform="translate(-31.67 -115.52)"/><path class="cls-1" d="M219.1,336.59l-17.17-8.09c17.78-4.52,33.4-9.9,47.24,2.84,3.65,3.37,5.8,9.48,5.86,14.36,0,2-8.5,3.26-10.94,6.37-12.32,15.69-30.23-3.8-43.39,6.3-0.53.4-6.79-3.45-6.72-5.2,0.11-3.11,2.29-7.86,4.92-8.85,6-2.27,12.89-2.7,19.4-3.87Z" transform="translate(-31.67 -115.52)"/><path class="cls-1" d="M339.27,541.17c-4.57,17-15.51,22.37-29,22.13-28.77-.51-53.91-9.64-73.15-31.58C268.25,555.54,303,548.29,339.27,541.17Z" transform="translate(-31.67 -115.52)"/><path class="cls-1" d="M324.8,408.83c4.87,5.67,11.52,10.75,14,17.23,1.55,4.11-1.47,12.22-5.35,15.21-12.85,9.9-27.28,12.15-43,4.18-7.52-3.82-16.3-5.44-24.18-11.27l63.11-3.91-9.69-17.35Z" transform="translate(-31.67 -115.52)"/><path class="cls-1" d="M335.18,669c54.06-5.44,88.72-81.52,66.84-103.48l165.77,64.38,4.54,82.4c-60.65,1.88-120.91,3.93-181.18,5.57C350,719,308.9,720.37,267.78,720.14c-44.52-.25-89-1.84-133.53-3.57-33.59-1.31-67.12-3.76-102.35-5.81,0-19.63-.85-40.06.7-60.33,0.32-4.13,9.17-8.56,14.92-11.31,22.17-10.6,44.78-20.38,67-30.85s44.12-21.33,70.18-34c-25.59,25.09-3.22,40.36,8.32,57.06,25.11,36.36,98.12,49.21,142.13,37.65" transform="translate(-31.67 -115.52)"/></svg>